<svg width="24" height="24" viewBox="0 0 24 24" fill="none" xmlns="http://www.w3.org/2000/svg">
<path d="M21.3485 2.17401C19.7864 0.611917 17.2537 0.611917 15.6916 2.17401L11.2336 6.63201L12.6478 8.04622L17.1058 3.58823C17.8869 2.80718 19.1532 2.80718 19.9343 3.58823L20.412 4.06598C21.1931 4.84703 21.1931 6.11336 20.412 6.89441L14.4202 12.8863C13.6391 13.6673 12.3728 13.6673 11.5917 12.8863L10.7628 12.0573L9.3486 13.4715L10.1775 14.3005C11.7396 15.8626 14.2723 15.8626 15.8344 14.3005L21.8262 8.30862C23.3883 6.74652 23.3883 4.21386 21.8262 2.65177L21.3485 2.17401ZM2.77902 21.8258C4.34112 23.3879 6.87378 23.3879 8.43588 21.8258L12.8913 17.3704L11.4771 15.9562L7.02166 20.4116C6.24062 21.1926 4.97429 21.1926 4.19324 20.4116L3.58798 19.8063C2.80694 19.0253 2.80694 17.759 3.58798 16.9779L9.57583 10.9901C10.3569 10.209 11.6232 10.209 12.4043 10.9901L13.3129 11.8987L14.7271 10.4845L13.8185 9.57586C12.2564 8.01376 9.72372 8.01376 8.16162 9.57586L2.17377 15.5637C0.611673 17.1258 0.611673 19.6585 2.17377 21.2206L2.77902 21.8258Z" fill="#2B263B"/>
</svg>
